# Blender 4.3.0
# www.blender.org
mtllib elefante2.mtl
o Cube
v 1.405005 4.073474 -2.445005
v 1.405005 1.746191 -2.232194
v 1.405005 4.485899 2.059230
v 1.405005 2.143457 2.274484
v -1.405005 4.072303 -2.445514
v -1.405005 1.740481 -2.231590
v -1.405005 4.485848 2.060111
v -1.405005 2.143460 2.274484
v 0.954479 5.228611 4.072760
v 1.005873 3.476404 4.037491
v 0.958603 5.202517 2.262552
v 0.987565 3.373094 2.242886
v -1.022739 5.177898 4.099440
v -0.941234 3.465363 4.066298
v -1.018180 5.175553 2.275606
v -0.987213 3.379462 2.244112
v 1.923560 5.856350 2.356062
v 1.923561 4.340907 2.798576
v 2.005480 5.905766 2.632104
v 2.005480 4.385735 3.070623
v 0.315509 5.862548 3.066941
v 0.315510 4.424281 3.255023
v 0.397429 5.889792 3.368504
v 0.397429 4.439109 3.524857
v -0.330486 5.858676 3.093927
v -0.330486 4.373603 3.230007
v -0.409679 5.880554 3.391489
v -0.409679 4.378458 3.510432
v -1.942974 5.861166 2.386003
v -1.942974 4.350150 2.792125
v -2.022166 5.907550 2.659893
v -2.022166 4.375426 3.068925
v 0.409568 4.387907 4.312585
v 0.413850 3.445322 5.128969
v 0.424980 2.724138 5.119074
v 0.418120 2.930814 5.347211
v 0.409568 4.186808 3.857668
v 0.414715 3.221283 4.886377
v 0.421625 2.524671 4.685955
v 0.424937 2.725410 5.114884
v -0.409568 4.444246 4.318684
v -0.405442 3.450642 5.129374
v -0.393921 2.724953 5.127608
v -0.400416 2.931139 5.362390
v -0.409568 4.264125 3.884273
v -0.404153 3.233047 4.898206
v -0.397217 2.526010 4.695730
v -0.393947 2.726214 5.123390
v -0.393941 2.727600 5.126405
v -0.404153 3.234522 4.901268
v 0.424956 2.726771 5.117867
v 0.414713 3.222877 4.889560
v 1.404641 2.266868 -2.271166
v 1.404641 0.251465 -2.266668
v 1.404641 2.612255 -1.540008
v 1.404641 0.251465 -1.540009
v 0.556030 2.276834 -2.271036
v 0.556030 0.251465 -2.266668
v 0.556030 2.612255 -1.540008
v 0.556030 0.251465 -1.540009
v -0.553857 2.277093 -2.270565
v -0.569809 0.251385 -2.283066
v -0.554034 2.611189 -1.539337
v -0.572079 0.245074 -1.556437
v -1.402513 2.263806 -2.271058
v -1.418387 0.258369 -2.285656
v -1.402602 2.612334 -1.539722
v -1.420657 0.252058 -1.559028
v -0.556902 2.548622 1.495945
v -0.522406 0.524934 1.575617
v -0.556301 2.647894 2.239370
v -0.516595 0.216555 2.241145
v -1.403837 2.583841 1.522558
v -1.370358 0.481629 1.626074
v -1.406310 2.676980 2.202380
v -1.366212 0.274475 2.426274
v 1.401593 2.559841 1.503076
v 1.401593 0.215651 1.875250
v 1.401593 2.635507 2.233367
v 1.401593 0.333183 2.591948
v 0.552983 2.596890 1.527867
v 0.552982 0.215706 1.875067
v 0.552982 2.622995 2.253338
v 0.552982 0.333205 2.591975
v -0.545993 1.882837 1.650789
v -0.540339 1.565203 1.764868
v -0.535162 1.271100 1.866869
v -0.531838 1.080076 1.877971
v -0.527498 0.823861 1.718548
v -0.522775 0.544791 1.540956
v -1.364734 0.179840 2.185889
v -1.369857 0.481665 2.357603
v -1.375723 0.826091 2.523532
v -1.383874 1.296942 2.559493
v -1.392936 1.678963 2.454018
v -1.400019 2.019456 2.329822
v -0.549035 2.047628 2.348194
v -0.542245 1.698153 2.470847
v -0.535444 1.314673 2.557667
v -0.527186 0.837635 2.521880
v -0.521326 0.493483 2.353265
v -0.516217 0.192334 2.179622
v -1.395193 1.874140 1.641735
v -1.388895 1.552314 1.769912
v -1.383691 1.259169 1.870803
v -1.380270 1.062480 1.878863
v -1.375923 0.805888 1.722511
v -1.371136 0.523529 1.552935
v 1.401593 1.882082 1.600090
v 1.401593 1.546923 1.656675
v 1.401593 1.214172 1.711313
v 1.401593 0.881204 1.765902
v 1.401593 0.548463 1.820543
v 1.401593 0.214869 1.877831
v 0.552982 0.334206 2.593222
v 0.552982 0.666015 2.537461
v 0.552982 0.998826 2.482967
v 0.552982 1.331672 2.428456
v 0.552982 1.662988 2.371365
v 0.552982 1.990345 2.313205
v 1.401593 1.995740 2.308519
v 1.401593 1.664156 2.371323
v 1.401593 1.331708 2.428413
v 1.401593 0.999095 2.482931
v 1.401593 0.666062 2.537492
v 1.401593 0.334251 2.593279
v 0.552982 1.886552 1.595116
v 0.552982 1.548159 1.654311
v 0.552982 1.214179 1.711318
v 0.552982 0.881126 1.765918
v 0.552982 0.548033 1.821163
v 0.552982 0.215230 1.876638
v 1.404641 1.596208 -2.216026
v 1.404640 1.556311 -2.256477
v 1.404640 1.263232 -2.266668
v 1.404641 0.925976 -2.266668
v 1.404641 0.588721 -2.266668
v 1.404641 0.251465 -2.266668
v 0.556030 0.251465 -1.540009
v 0.556030 0.588721 -1.540009
v 0.556030 0.925976 -1.540009
v 0.556030 1.263232 -1.540008
v 0.556030 1.600488 -1.540009
v 0.556030 1.937744 -1.540009
v 1.404641 1.937744 -1.540009
v 1.404641 1.600488 -1.540009
v 1.404641 1.263232 -1.540008
v 1.404641 0.925976 -1.540009
v 1.404641 0.588721 -1.540009
v 1.404641 0.251465 -1.540009
v 0.556030 1.937744 -2.266668
v 0.556030 1.600488 -2.266668
v 0.556030 1.263232 -2.266668
v 0.556030 0.925976 -2.266668
v 0.556030 0.588721 -2.266668
v 0.556030 0.251465 -2.266668
v -0.555760 1.937569 -2.268158
v -0.558597 1.600317 -2.271163
v -0.561509 1.263080 -2.274253
v -0.564276 0.925848 -2.277191
v -0.567042 0.588617 -2.280128
v -0.569809 0.251385 -2.283066
v -1.420657 0.252058 -1.559028
v -1.417890 0.589289 -1.556090
v -1.415124 0.926521 -1.553153
v -1.412358 1.263752 -1.550215
v -1.409453 1.600974 -1.547127
v -1.406371 1.938161 -1.543839
v -0.557737 1.932070 -1.541525
v -0.560793 1.594213 -1.544534
v -0.563780 1.256769 -1.547625
v -0.566546 0.919537 -1.550562
v -0.569312 0.582306 -1.553500
v -0.572079 0.245074 -1.556437
v -1.403653 1.583640 -2.215662
v -1.406974 1.565151 -2.263739
v -1.410088 1.270063 -2.276844
v -1.412854 0.932832 -2.279781
v -1.415620 0.595600 -2.282719
v -1.418387 0.258369 -2.285656
v 0.414525 3.341097 5.008536
v -0.404562 3.347821 5.013005
v -0.396521 2.830025 5.242151
v 0.421844 2.830270 5.224989
vn -0.0002 0.9958 -0.0913
vn 0.0002 0.0913 0.9958
vn -1.0000 -0.0000 -0.0000
vn 0.0010 -0.9961 0.0884
vn 1.0000 -0.0000 -0.0000
vn 0.0001 -0.0912 -0.9958
vn 0.0197 -0.9998 0.0079
vn 0.0037 -0.0140 0.9999
vn 0.9994 0.0323 -0.0121
vn -0.0016 0.9986 -0.0522
vn -0.9997 -0.0225 0.0047
vn -0.0144 0.0192 -0.9997
vn -0.0552 0.9917 -0.1160
vn 0.3431 0.1844 0.9210
vn -0.9614 0.0326 0.2733
vn -0.0104 -0.9936 0.1125
vn 0.9588 -0.0792 -0.2730
vn -0.3394 -0.1964 -0.9199
vn 0.0552 0.9931 -0.1033
vn -0.3363 0.1614 0.9278
vn -0.9610 -0.0715 -0.2671
vn -0.0061 -0.9986 0.0523
vn 0.9645 0.0225 0.2633
vn 0.3310 -0.1680 -0.9285
vn -0.0670 -0.9171 0.3931
vn 0.0408 0.4342 0.8999
vn 1.0000 0.0077 -0.0008
vn 0.9998 0.0163 -0.0086
vn -0.0035 0.9083 -0.4183
vn -1.0000 -0.0078 0.0009
vn -0.9998 -0.0158 0.0104
vn -0.0280 -0.4387 -0.8982
vn -0.0099 -0.4154 -0.9096
vn -0.0036 -0.7528 0.6582
vn 0.9999 0.0156 0.0067
vn -0.0104 0.7343 -0.6787
vn -0.9999 -0.0140 -0.0063
vn -0.0101 -0.4000 -0.9164
vn 0.0053 0.9065 -0.4221
vn -0.0000 -0.0000 1.0000
vn -0.0000 -1.0000 -0.0000
vn 0.0175 -0.0588 -0.9981
vn -0.0063 0.9061 -0.4229
vn -0.0016 -0.0047 1.0000
vn -1.0000 0.0035 -0.0037
vn -0.0082 -0.9999 -0.0087
vn 1.0000 -0.0055 0.0027
vn -0.0184 -0.0565 -0.9982
vn 0.0383 0.9903 -0.1338
vn -0.0319 0.1842 0.9824
vn -0.9999 -0.0115 -0.0033
vn -0.0540 -0.9421 -0.3310
vn 0.9999 0.0142 -0.0009
vn -0.0132 -0.1955 -0.9806
vn 0.0126 0.9975 -0.0697
vn 0.0133 0.1055 0.9943
vn -0.0001 -0.9868 0.1618
vn -0.0145 -0.1175 -0.9930
vn 0.0147 -0.8675 -0.4972
vn -0.0201 0.5256 -0.8505
vn -0.0134 0.5241 -0.8515
vn -0.0020 -0.0494 -0.9988
vn -0.0002 -0.3266 -0.9452
vn 0.0067 -0.3542 -0.9352
vn -0.9998 -0.0174 0.0007
vn 0.9998 0.0174 -0.0007
vn 0.9998 0.0175 -0.0006
vn 0.9998 0.0185 -0.0004
vn -0.9998 -0.0213 -0.0005
vn -0.9998 -0.0211 -0.0023
vn -0.0164 0.9303 -0.3664
vn 0.0125 -0.4968 0.8678
vn 0.0092 -0.4369 0.8995
vn 0.0033 -0.0754 0.9971
vn -0.0139 0.2433 0.9698
vn -0.0288 0.3362 0.9413
vn -0.0000 0.9570 0.2900
vn 0.0003 -0.1668 -0.9860
vn -0.0003 -0.1628 -0.9867
vn -0.0000 -0.1618 -0.9868
vn 0.0013 -0.1652 -0.9863
vn 0.0037 -0.1694 -0.9855
vn -1.0000 -0.0000 -0.0001
vn -0.0000 -0.7799 0.6259
vn -0.0001 0.1658 0.9862
vn -0.0000 0.1616 0.9869
vn -0.0000 0.1617 0.9868
vn -0.0001 0.1695 0.9855
vn 0.0020 0.1806 0.9836
vn -0.0000 1.0000 -0.0000
vn -0.0000 -0.0000 -1.0000
vn 0.0064 0.0162 -0.9998
vn 0.0598 0.1064 -0.9925
vn 0.0031 0.0087 -1.0000
vn -0.0033 0.0256 -0.9997
vn -0.0677 0.1430 -0.9874
vn 1.0000 -0.0082 0.0031
vn 1.0000 -0.0088 0.0030
vn 1.0000 -0.0088 0.0028
vn -1.0000 0.0082 -0.0031
vn -0.9999 0.0096 -0.0035
vn -0.9998 0.0193 -0.0092
vn -0.0031 -0.0087 1.0000
vn -0.0031 -0.0091 1.0000
vn -0.0030 -0.0093 1.0000
vn -0.9999 -0.0167 0.0018
vn -0.0126 0.7686 -0.6396
vn 0.9999 0.0166 -0.0026
vn -0.0009 -0.7059 0.7083
vt 0.625000 0.500000
vt 0.875000 0.500000
vt 0.875000 0.750000
vt 0.625000 0.750000
vt 0.375000 0.750000
vt 0.625000 1.000000
vt 0.375000 1.000000
vt 0.375000 0.000000
vt 0.625000 0.000000
vt 0.625000 0.250000
vt 0.375000 0.250000
vt 0.125000 0.500000
vt 0.375000 0.500000
vt 0.125000 0.750000
vt 0.375377 0.248284
vt 0.375377 0.250000
vt 0.447656 0.250000
vt 0.447656 0.248284
vt 0.447656 0.500000
vt 0.375377 0.500000
vt 0.375377 0.501716
vt 0.447656 0.501716
vt 0.625000 0.624122
vt 0.875000 0.624122
vt 0.625000 0.125878
vt 0.375000 0.125878
vt 0.125000 0.624122
vt 0.375000 0.624122
vt 0.375000 0.748243
vt 0.125000 0.748243
vt 0.553571 0.750000
vt 0.553571 1.000000
vt 0.553571 0.000000
vt 0.553571 0.250000
vt 0.553571 0.500000
vt 0.410714 0.250000
vt 0.410714 0.500000
vt 0.446429 0.250000
vt 0.446429 0.500000
vt 0.482143 0.250000
vt 0.482143 0.500000
vt 0.517857 0.250000
vt 0.517857 0.500000
vt 0.375000 0.750000
vt 0.410714 0.750000
vt 0.446429 0.750000
vt 0.482143 0.750000
vt 0.517857 0.750000
vt 0.410714 0.000000
vt 0.446429 0.000000
vt 0.482143 0.000000
vt 0.517857 0.000000
vt 0.410714 1.000000
vt 0.446429 1.000000
vt 0.482143 1.000000
vt 0.517857 1.000000
vt 0.446429 0.250000
vt 0.375000 0.250000
vt 0.410714 0.250000
vt 0.446429 0.250000
vt 0.446429 0.500000
vt 0.482143 0.250000
vt 0.482143 0.750000
vt 0.625000 0.748243
vt 0.625000 0.001757
vt 0.375000 0.001757
vt 0.875000 0.748243
s 0
usemtl Material
f 1/1/1 5/2/1 7/3/1 3/4/1
f 4/5/2 3/4/2 7/6/2 8/7/2
f 8/8/3 7/9/3 5/10/3 6/11/3
f 6/12/4 2/13/4 4/5/4 8/14/4
f 2/13/5 1/1/5 3/4/5 4/5/5
f 6/11/6 5/10/6 1/1/6 2/13/6
usemtl Material.001
f 9/1/7 13/2/7 15/3/7 11/4/7
f 12/5/8 11/4/8 15/6/8 16/7/8
f 16/8/9 15/9/9 13/10/9 14/11/9
f 14/12/10 10/13/10 12/5/10 16/14/10
f 10/13/11 9/1/11 11/4/11 12/5/11
f 14/11/12 13/10/12 9/1/12 10/13/12
usemtl Material.002
f 17/1/13 21/2/13 23/3/13 19/4/13
f 20/5/14 19/4/14 23/6/14 24/7/14
f 24/8/15 23/9/15 21/10/15 22/11/15
f 22/12/16 18/13/16 20/5/16 24/14/16
f 18/13/17 17/1/17 19/4/17 20/5/17
f 22/11/18 21/10/18 17/1/18 18/13/18
usemtl Material.003
f 25/1/19 29/2/19 31/3/19 27/4/19
f 28/5/20 27/4/20 31/6/20 32/7/20
f 32/8/21 31/9/21 29/10/21 30/11/21
f 30/12/22 26/13/22 28/5/22 32/14/22
f 26/13/23 25/1/23 27/4/23 28/5/23
f 30/11/24 29/10/24 25/1/24 26/13/24
usemtl Material.004
f 33/1/25 41/2/25 45/3/25 37/4/25
f 39/5/26 37/4/26 45/6/26 47/7/26
f 48/15/27 49/16/27 43/11/27 47/8/27 45/9/27 41/10/27 50/17/27 46/18/27
f 49/16/28 48/15/28 46/18/28 50/17/28
f 43/12/29 35/13/29 39/5/29 47/14/29
f 52/19/30 33/1/30 37/4/30 39/5/30 35/13/30 51/20/30 40/21/30 38/22/30
f 52/19/31 38/22/31 40/21/31 51/20/31
f 50/17/32 41/10/32 33/1/32 52/19/32
f 35/13/33 43/11/33 49/16/33 51/20/33
f 181/23/34 34/1/34 42/2/34 182/24/34
f 182/25/35 42/10/35 44/11/35 183/26/35
f 183/27/36 184/28/36 51/29/36 49/30/36
f 184/28/37 36/13/37 34/1/37 181/23/37
f 44/11/38 42/10/38 34/1/38 36/13/38
f 51/29/106 184/28/106 181/23/106 52/64/106
f 44/12/107 36/13/107 184/28/107 183/27/107
f 50/65/108 182/25/108 183/26/108 49/66/108
f 52/64/109 181/23/109 182/24/109 50/67/109
usemtl Material.005
f 53/1/39 57/2/39 59/3/39 55/4/39
f 145/31/40 55/4/40 59/6/40 144/32/40
f 144/33/3 59/9/3 57/10/3 151/34/3
f 58/12/41 54/13/41 56/5/41 60/14/41
f 133/35/5 53/1/5 55/4/5 145/31/5
f 151/34/42 57/10/42 53/1/42 133/35/42
f 58/11/90 156/58/90 138/13/90 54/13/90
f 156/58/91 155/59/91 137/37/91 138/13/91
f 155/59/91 154/60/91 136/61/91 137/37/91
f 154/60/91 153/62/91 135/41/91 136/61/91
f 153/62/92 152/42/92 134/43/92 135/41/92
f 152/42/93 151/34/93 133/35/93 134/43/93
f 54/13/90 138/13/90 150/44/90 56/5/90
f 138/13/5 137/37/5 149/45/5 150/44/5
f 137/37/5 136/61/5 148/46/5 149/45/5
f 136/61/5 135/41/5 147/47/5 148/46/5
f 135/41/5 134/43/5 146/48/5 147/47/5
f 134/43/5 133/35/5 145/31/5 146/48/5
f 60/8/90 139/8/90 156/58/90 58/11/90
f 139/8/3 140/49/3 155/59/3 156/58/3
f 140/49/3 141/50/3 154/60/3 155/59/3
f 141/50/3 142/51/3 153/62/3 154/60/3
f 142/51/3 143/52/3 152/42/3 153/62/3
f 143/52/3 144/33/3 151/34/3 152/42/3
f 56/5/90 150/44/90 139/7/90 60/7/90
f 150/44/40 149/45/40 140/53/40 139/7/40
f 149/45/40 148/46/40 141/54/40 140/53/40
f 148/46/40 147/47/40 142/55/40 141/54/40
f 147/47/40 146/48/40 143/56/40 142/55/40
f 146/48/40 145/31/40 144/32/40 143/56/40
usemtl Material.006
f 61/1/43 65/2/43 67/3/43 63/4/43
f 169/31/44 63/4/44 67/6/44 168/32/44
f 168/33/45 67/9/45 65/10/45 175/34/45
f 66/12/46 62/13/46 64/5/46 68/14/46
f 157/35/47 61/1/47 63/4/47 169/31/47
f 175/34/48 65/10/48 61/1/48 157/35/48
f 66/11/90 180/11/90 162/13/90 62/13/90
f 180/11/94 179/36/94 161/37/94 162/13/94
f 179/36/94 178/38/94 160/61/94 161/37/94
f 178/38/94 177/40/94 159/41/94 160/61/94
f 177/40/95 176/42/95 158/43/95 159/41/95
f 176/42/96 175/34/96 157/35/96 158/43/96
f 62/13/90 162/13/90 174/5/90 64/5/90
f 162/13/97 161/37/97 173/45/97 174/5/97
f 161/37/97 160/61/97 172/46/97 173/45/97
f 160/61/97 159/41/97 171/63/97 172/46/97
f 159/41/98 158/43/98 170/48/98 171/63/98
f 158/43/99 157/35/99 169/31/99 170/48/99
f 68/8/90 163/8/90 180/11/90 66/11/90
f 163/8/100 164/49/100 179/36/100 180/11/100
f 164/49/100 165/50/100 178/38/100 179/36/100
f 165/50/100 166/51/100 177/40/100 178/38/100
f 166/51/101 167/52/101 176/42/101 177/40/101
f 167/52/102 168/33/102 175/34/102 176/42/102
f 64/5/90 174/5/90 163/7/90 68/7/90
f 174/5/103 173/45/103 164/53/103 163/7/103
f 173/45/103 172/46/103 165/54/103 164/53/103
f 172/46/103 171/63/103 166/55/103 165/54/103
f 171/63/104 170/48/104 167/56/104 166/55/104
f 170/48/105 169/31/105 168/32/105 167/56/105
usemtl Material.007
f 69/1/49 73/2/49 75/3/49 71/4/49
f 97/31/50 71/4/50 75/6/50 96/32/50
f 96/33/51 75/9/51 73/10/51 103/34/51
f 74/12/52 70/13/52 72/5/52 76/14/52
f 85/35/53 69/1/53 71/4/53 97/31/53
f 103/34/54 73/10/54 69/1/54 85/35/54
f 74/11/59 108/11/59 90/13/59 70/13/59
f 108/11/60 107/36/60 89/37/60 90/13/60
f 107/36/61 106/38/61 88/39/61 89/37/61
f 106/38/62 105/40/62 87/41/62 88/39/62
f 105/40/63 104/42/63 86/43/63 87/41/63
f 104/42/64 103/34/64 85/35/64 86/43/64
f 70/13/65 90/13/65 102/44/65 72/5/65
f 90/13/66 89/37/66 101/45/66 102/44/66
f 89/37/66 88/39/66 100/46/66 101/45/66
f 88/39/66 87/41/66 99/47/66 100/46/66
f 87/41/67 86/43/67 98/48/67 99/47/67
f 86/43/68 85/35/68 97/31/68 98/48/68
f 76/8/66 91/8/66 108/11/66 74/11/66
f 91/8/65 92/49/65 107/36/65 108/11/65
f 92/49/65 93/50/65 106/38/65 107/36/65
f 93/50/65 94/51/65 105/40/65 106/38/65
f 94/51/69 95/52/69 104/42/69 105/40/69
f 95/52/70 96/33/70 103/34/70 104/42/70
f 72/5/71 102/44/71 91/7/71 76/7/71
f 102/44/72 101/45/72 92/53/72 91/7/72
f 101/45/73 100/46/73 93/54/73 92/53/73
f 100/46/74 99/47/74 94/55/74 93/54/74
f 99/47/75 98/48/75 95/56/75 94/55/75
f 98/48/76 97/31/76 96/32/76 95/56/76
usemtl Material.008
f 77/1/55 81/2/55 83/3/55 79/4/55
f 121/31/56 79/4/56 83/6/56 120/32/56
f 120/33/3 83/9/3 81/10/3 127/34/3
f 82/12/57 78/13/57 80/5/57 84/14/57
f 109/35/5 77/1/5 79/4/5 121/31/5
f 127/34/58 81/10/58 77/1/58 109/35/58
f 82/11/77 132/11/77 114/13/77 78/13/77
f 132/11/78 131/36/78 113/37/78 114/13/78
f 131/36/79 130/57/79 112/39/79 113/37/79
f 130/57/80 129/40/80 111/41/80 112/39/80
f 129/40/81 128/42/81 110/43/81 111/41/81
f 128/42/82 127/34/82 109/35/82 110/43/82
f 78/13/3 114/13/3 126/44/3 80/5/3
f 114/13/5 113/37/5 125/45/5 126/44/5
f 113/37/5 112/39/5 124/46/5 125/45/5
f 112/39/5 111/41/5 123/47/5 124/46/5
f 111/41/5 110/43/5 122/48/5 123/47/5
f 110/43/5 109/35/5 121/31/5 122/48/5
f 84/8/83 115/8/83 132/11/83 82/11/83
f 115/8/3 116/49/3 131/36/3 132/11/3
f 116/49/3 117/50/3 130/57/3 131/36/3
f 117/50/3 118/51/3 129/40/3 130/57/3
f 118/51/3 119/52/3 128/42/3 129/40/3
f 119/52/3 120/33/3 127/34/3 128/42/3
f 80/5/84 126/44/84 115/7/84 84/7/84
f 126/44/85 125/45/85 116/53/85 115/7/85
f 125/45/86 124/46/86 117/54/86 116/53/86
f 124/46/87 123/47/87 118/55/87 117/54/87
f 123/47/88 122/48/88 119/56/88 118/55/88
f 122/48/89 121/31/89 120/32/89 119/56/89
